<?xml version="1.0" encoding="UTF-8"?>
<svg width="200" height="200" viewBox="0 0 400 400" xmlns="http://www.w3.org/2000/svg">
    <!-- Encircling circle -->
    <circle cx="200" cy="200" r="190" stroke="#000000" stroke-width="15" fill="none"/>
    <!-- Main logo group -->
    <g fill="#000000" transform="scale(0.9)" transform-origin="200 200"> <!-- Black -->
        <!-- Script-style A with rounded edges -->
        <path d="
            M200 60
            C180 60, 165 80, 165 105
            C165 130, 180 150, 200 150
            C220 150, 235 130, 235 105
            L235 330
            L270 330
            L270 105
            C270 70, 235 35, 200 35
            C165 35, 130 70, 130 105
            L130 330
            L165 330
            L165 150
            Z
        "/>
        
        <!-- Flowing wave representing NUBIS -->
        <path d="
            M120 280
            Q165 260, 200 280
            Q235 300, 280 280
            L280 305
            Q235 325, 200 305
            Q165 285, 120 305
            Z
        "/>
    </g>
</svg>
